<svg width="24" height="24" viewBox="0 0 24 24" fill="none" xmlns="http://www.w3.org/2000/svg">
<mask id="mask0_4358_28280" style="mask-type:alpha" maskUnits="userSpaceOnUse" x="0" y="0" width="24" height="24">
<rect width="24" height="24" fill="#D9D9D9"/>
</mask>
<g mask="url(#mask0_4358_28280)">
<path d="M4 9.2C3.71667 9.2 3.47917 9.10417 3.2875 8.9125C3.09583 8.72083 3 8.48333 3 8.2C3 7.91667 3.09583 7.67917 3.2875 7.4875C3.47917 7.29583 3.71667 7.2 4 7.2H7C7.55 7.2 8.02083 7.39583 8.4125 7.7875C8.80417 8.17917 9 8.65 9 9.2H4ZM6 18.2C6.83333 18.2 7.54167 17.9083 8.125 17.325C8.70833 16.7417 9 16.0333 9 15.2C9 14.3667 8.70833 13.6583 8.125 13.075C7.54167 12.4917 6.83333 12.2 6 12.2C5.16667 12.2 4.45833 12.4917 3.875 13.075C3.29167 13.6583 3 14.3667 3 15.2C3 16.0333 3.29167 16.7417 3.875 17.325C4.45833 17.9083 5.16667 18.2 6 18.2ZM19.5 18.2C19.9167 18.2 20.2708 18.0542 20.5625 17.7625C20.8542 17.4708 21 17.1167 21 16.7C21 16.2833 20.8542 15.9292 20.5625 15.6375C20.2708 15.3458 19.9167 15.2 19.5 15.2C19.0833 15.2 18.7292 15.3458 18.4375 15.6375C18.1458 15.9292 18 16.2833 18 16.7C18 17.1167 18.1458 17.4708 18.4375 17.7625C18.7292 18.0542 19.0833 18.2 19.5 18.2ZM6 16.7C5.58333 16.7 5.22917 16.5542 4.9375 16.2625C4.64583 15.9708 4.5 15.6167 4.5 15.2C4.5 14.7833 4.64583 14.4292 4.9375 14.1375C5.22917 13.8458 5.58333 13.7 6 13.7C6.41667 13.7 6.77083 13.8458 7.0625 14.1375C7.35417 14.4292 7.5 14.7833 7.5 15.2C7.5 15.6167 7.35417 15.9708 7.0625 16.2625C6.77083 16.5542 6.41667 16.7 6 16.7ZM20 13.225C20.4333 13.3083 20.7917 13.4208 21.075 13.5625C21.3583 13.7042 21.6667 13.9333 22 14.25V8.2C22 7.65 21.8042 7.17917 21.4125 6.7875C21.0208 6.39583 20.55 6.2 20 6.2H13.7L12.65 5.1L14.05 3.7L13.35 3L9.8 6.55L10.55 7.25L11.95 5.85L13 6.9V9.2C13 9.75 12.8042 10.2208 12.4125 10.6125C12.0208 11.0042 11.55 11.2 11 11.2H8.975C9.35833 11.4833 9.66667 11.775 9.9 12.075C10.1333 12.375 10.3667 12.75 10.6 13.2H11C12.1 13.2 13.0417 12.8083 13.825 12.025C14.6083 11.2417 15 10.3 15 9.2V8.2H20V13.225ZM16.025 16.2C16.125 15.75 16.2458 15.3875 16.3875 15.1125C16.5292 14.8375 16.75 14.5333 17.05 14.2H10.9C10.9667 14.5833 11 14.9167 11 15.2C11 15.4833 10.9667 15.8167 10.9 16.2H16.025ZM19.5 20.2C18.5333 20.2 17.7083 19.8583 17.025 19.175C16.3417 18.4917 16 17.6667 16 16.7C16 15.7333 16.3417 14.9083 17.025 14.225C17.7083 13.5417 18.5333 13.2 19.5 13.2C20.4667 13.2 21.2917 13.5417 21.975 14.225C22.6583 14.9083 23 15.7333 23 16.7C23 17.6667 22.6583 18.4917 21.975 19.175C21.2917 19.8583 20.4667 20.2 19.5 20.2ZM6 20.2C4.61667 20.2 3.4375 19.7125 2.4625 18.7375C1.4875 17.7625 1 16.5833 1 15.2C1 13.8167 1.4875 12.6375 2.4625 11.6625C3.4375 10.6875 4.61667 10.2 6 10.2C7.38333 10.2 8.5625 10.6875 9.5375 11.6625C10.5125 12.6375 11 13.8167 11 15.2C11 16.5833 10.5125 17.7625 9.5375 18.7375C8.5625 19.7125 7.38333 20.2 6 20.2Z" fill="#757680"/>
</g>
</svg>
