<svg width="18" height="18" viewBox="0 0 18 18" fill="none" xmlns="http://www.w3.org/2000/svg">
<mask id="mask0_4358_31035" style="mask-type:alpha" maskUnits="userSpaceOnUse" x="0" y="0" width="18" height="18">
<rect width="18" height="18" fill="#D9D9D9"/>
</mask>
<g mask="url(#mask0_4358_31035)">
<path d="M9.13889 16.7778C7.84259 16.7778 6.65046 16.4826 5.5625 15.8924C4.47454 15.3021 3.58333 14.515 2.88889 13.5313V15.3889H1.5V11.2222H5.66667V12.6111H3.94792C4.50347 13.4444 5.23553 14.1157 6.1441 14.625C7.05266 15.1343 8.05093 15.3889 9.13889 15.3889C10.0069 15.3889 10.82 15.224 11.5781 14.8941C12.3362 14.5642 12.9959 14.1186 13.5573 13.5573C14.1186 12.9959 14.5642 12.3362 14.8941 11.5781C15.224 10.82 15.3889 10.0069 15.3889 9.13889H16.7778C16.7778 10.1921 16.5781 11.1817 16.1788 12.1076C15.7795 13.0336 15.2326 13.8437 14.5382 14.5382C13.8437 15.2326 13.0336 15.7795 12.1076 16.1788C11.1817 16.5781 10.1921 16.7778 9.13889 16.7778ZM8.51389 14V13.0972C7.96991 12.9699 7.5272 12.7355 7.18576 12.3941C6.84433 12.0527 6.59259 11.6042 6.43056 11.0486L7.57639 10.5972C7.71528 11.0718 7.93229 11.4277 8.22743 11.6649C8.52257 11.9022 8.86111 12.0208 9.24306 12.0208C9.625 12.0208 9.95197 11.9311 10.224 11.7517C10.4959 11.5723 10.6319 11.2917 10.6319 10.9097C10.6319 10.5741 10.4902 10.3021 10.2066 10.0937C9.92303 9.88542 9.41667 9.64815 8.6875 9.38194C8.00463 9.13889 7.50405 8.84954 7.18576 8.51389C6.86748 8.17824 6.70833 7.73843 6.70833 7.19444C6.70833 6.71991 6.87326 6.28877 7.20313 5.90104C7.53299 5.51331 7.98148 5.26157 8.54861 5.14583V4.27778H9.76389V5.14583C10.1806 5.18056 10.5596 5.34838 10.901 5.64931C11.2425 5.95023 11.4769 6.30324 11.6042 6.70833L10.4931 7.15972C10.4005 6.89352 10.25 6.67072 10.0417 6.49132C9.83333 6.31192 9.54398 6.22222 9.17361 6.22222C8.76852 6.22222 8.45891 6.30903 8.24479 6.48264C8.03067 6.65625 7.92361 6.89352 7.92361 7.19444C7.92361 7.49537 8.05671 7.73264 8.32292 7.90625C8.58912 8.07986 9.06944 8.28241 9.76389 8.51389C10.5972 8.81481 11.1528 9.16782 11.4306 9.57292C11.7083 9.97801 11.8472 10.4236 11.8472 10.9097C11.8472 11.2454 11.7894 11.5405 11.6736 11.7951C11.5579 12.0498 11.4045 12.2668 11.2135 12.4462C11.0226 12.6256 10.7998 12.7703 10.5451 12.8802C10.2905 12.9902 10.0185 13.0741 9.72917 13.1319V14H8.51389ZM1.5 9.13889C1.5 8.08565 1.69965 7.09606 2.09896 6.17014C2.49826 5.24421 3.04514 4.43403 3.73958 3.73958C4.43403 3.04514 5.24421 2.49826 6.17014 2.09896C7.09606 1.69965 8.08565 1.5 9.13889 1.5C10.4352 1.5 11.6273 1.79514 12.7153 2.38542C13.8032 2.97569 14.6944 3.76273 15.3889 4.74653V2.88889H16.7778V7.05556H12.6111V5.66667H14.3299C13.7743 4.83333 13.0422 4.16204 12.1337 3.65278C11.2251 3.14352 10.2269 2.88889 9.13889 2.88889C8.27083 2.88889 7.45775 3.05382 6.69965 3.38368C5.94155 3.71354 5.28183 4.15914 4.72049 4.72049C4.15914 5.28183 3.71354 5.94155 3.38368 6.69965C3.05382 7.45775 2.88889 8.27083 2.88889 9.13889H1.5Z" fill="#757680"/>
</g>
</svg>
