<svg width="24" height="24" viewBox="0 0 24 24" fill="none" xmlns="http://www.w3.org/2000/svg">
<path d="M4.9 17.1004C3.95 16.1004 3.22917 14.9921 2.7375 13.7754C2.24583 12.5587 2 11.3004 2 10.0004C2 8.70039 2.24583 7.44206 2.7375 6.22539C3.22917 5.00872 3.95 3.90039 4.9 2.90039L6.1 4.10039C5.3 4.90039 4.7 5.82122 4.3 6.86289C3.9 7.90456 3.7 8.95039 3.7 10.0004C3.7 11.0504 3.9 12.0962 4.3 13.1379C4.7 14.1796 5.3 15.1004 6.1 15.9004L4.9 17.1004ZM7.3 14.7004C6.65 14.0504 6.15417 13.3171 5.8125 12.5004C5.47083 11.6837 5.3 10.8504 5.3 10.0004C5.3 9.15039 5.47083 8.31706 5.8125 7.50039C6.15417 6.68372 6.65 5.95039 7.3 5.30039L8.5 6.50039C8 6.95039 7.625 7.48372 7.375 8.10039C7.125 8.71706 7 9.35039 7 10.0004C7 10.6004 7.125 11.2087 7.375 11.8254C7.625 12.4421 8 13.0004 8.5 13.5004L7.3 14.7004ZM7 22.0004L10.375 11.8754C10.1083 11.6421 9.89583 11.3671 9.7375 11.0504C9.57917 10.7337 9.5 10.3837 9.5 10.0004C9.5 9.30039 9.74167 8.70872 10.225 8.22539C10.7083 7.74206 11.3 7.50039 12 7.50039C12.7 7.50039 13.2917 7.74206 13.775 8.22539C14.2583 8.70872 14.5 9.30039 14.5 10.0004C14.5 10.3837 14.4208 10.7337 14.2625 11.0504C14.1042 11.3671 13.8917 11.6421 13.625 11.8754L17 22.0004H15L14.35 20.0004H9.675L9 22.0004H7ZM10.325 18.0004H13.675L12 13.0004L10.325 18.0004ZM16.7 14.7004L15.5 13.5004C16 13.0504 16.375 12.5171 16.625 11.9004C16.875 11.2837 17 10.6504 17 10.0004C17 9.40039 16.875 8.79206 16.625 8.17539C16.375 7.55872 16 7.00039 15.5 6.50039L16.7 5.30039C17.35 5.95039 17.8333 6.68372 18.15 7.50039C18.4667 8.31706 18.65 9.15039 18.7 10.0004C18.7 10.8504 18.5292 11.6837 18.1875 12.5004C17.8458 13.3171 17.35 14.0504 16.7 14.7004ZM19.1 17.1004L17.9 15.9004C18.7 15.1004 19.3 14.1796 19.7 13.1379C20.1 12.0962 20.3 11.0504 20.3 10.0004C20.3 8.95039 20.1 7.90456 19.7 6.86289C19.3 5.82122 18.7 4.90039 17.9 4.10039L19.1 2.90039C20.05 3.90039 20.7708 5.00872 21.2625 6.22539C21.7542 7.44206 22 8.70039 22 10.0004C22 11.3004 21.7667 12.5587 21.3 13.7754C20.8333 14.9921 20.1 16.1004 19.1 17.1004Z" fill="#757680"/>
</svg>
