<svg width="18" height="18" viewBox="0 0 18 18" fill="none" xmlns="http://www.w3.org/2000/svg">
<path d="M3.675 12.8258C2.9625 12.0758 2.42188 11.2445 2.05313 10.332C1.68438 9.41953 1.5 8.47578 1.5 7.50078C1.5 6.52578 1.68438 5.58203 2.05313 4.66953C2.42188 3.75703 2.9625 2.92578 3.675 2.17578L4.575 3.07578C3.975 3.67578 3.525 4.36641 3.225 5.14766C2.925 5.92891 2.775 6.71328 2.775 7.50078C2.775 8.28828 2.925 9.07266 3.225 9.85391C3.525 10.6352 3.975 11.3258 4.575 11.9258L3.675 12.8258ZM5.475 11.0258C4.9875 10.5383 4.61563 9.98828 4.35938 9.37578C4.10313 8.76328 3.975 8.13828 3.975 7.50078C3.975 6.86328 4.10313 6.23828 4.35938 5.62578C4.61563 5.01328 4.9875 4.46328 5.475 3.97578L6.375 4.87578C6 5.21328 5.71875 5.61328 5.53125 6.07578C5.34375 6.53828 5.25 7.01328 5.25 7.50078C5.25 7.95078 5.34375 8.40703 5.53125 8.86953C5.71875 9.33203 6 9.75078 6.375 10.1258L5.475 11.0258ZM5.25 16.5008L7.78125 8.90703C7.58125 8.73203 7.42188 8.52578 7.30313 8.28828C7.18438 8.05078 7.125 7.78828 7.125 7.50078C7.125 6.97578 7.30625 6.53203 7.66875 6.16953C8.03125 5.80703 8.475 5.62578 9 5.62578C9.525 5.62578 9.96875 5.80703 10.3313 6.16953C10.6938 6.53203 10.875 6.97578 10.875 7.50078C10.875 7.78828 10.8156 8.05078 10.6969 8.28828C10.5781 8.52578 10.4188 8.73203 10.2188 8.90703L12.75 16.5008H11.25L10.7625 15.0008H7.25625L6.75 16.5008H5.25ZM7.74375 13.5008H10.2563L9 9.75078L7.74375 13.5008ZM12.525 11.0258L11.625 10.1258C12 9.78828 12.2813 9.38828 12.4688 8.92578C12.6563 8.46328 12.75 7.98828 12.75 7.50078C12.75 7.05078 12.6563 6.59453 12.4688 6.13203C12.2813 5.66953 12 5.25078 11.625 4.87578L12.525 3.97578C13.0125 4.46328 13.375 5.01328 13.6125 5.62578C13.85 6.23828 13.9875 6.86328 14.025 7.50078C14.025 8.13828 13.8969 8.76328 13.6406 9.37578C13.3844 9.98828 13.0125 10.5383 12.525 11.0258ZM14.325 12.8258L13.425 11.9258C14.025 11.3258 14.475 10.6352 14.775 9.85391C15.075 9.07266 15.225 8.28828 15.225 7.50078C15.225 6.71328 15.075 5.92891 14.775 5.14766C14.475 4.36641 14.025 3.67578 13.425 3.07578L14.325 2.17578C15.0375 2.92578 15.5781 3.75703 15.9469 4.66953C16.3156 5.58203 16.5 6.52578 16.5 7.50078C16.5 8.47578 16.325 9.41953 15.975 10.332C15.625 11.2445 15.075 12.0758 14.325 12.8258Z" fill="#757680"/>
</svg>
