<svg width="24" height="24" viewBox="0 0 24 24" fill="none" xmlns="http://www.w3.org/2000/svg">
<mask id="mask0_4358_28243" style="mask-type:alpha" maskUnits="userSpaceOnUse" x="0" y="0" width="24" height="24">
<rect width="24" height="24" fill="#D9D9D9"/>
</mask>
<g mask="url(#mask0_4358_28243)">
<path d="M12.1667 21.3333C10.6111 21.3333 9.18056 20.9792 7.875 20.2708C6.56944 19.5625 5.5 18.6181 4.66667 17.4375V19.6667H3V14.6667H8V16.3333H5.9375C6.60417 17.3333 7.48264 18.1389 8.57292 18.75C9.66319 19.3611 10.8611 19.6667 12.1667 19.6667C13.2083 19.6667 14.184 19.4688 15.0938 19.0729C16.0035 18.6771 16.7951 18.1424 17.4688 17.4688C18.1424 16.7951 18.6771 16.0035 19.0729 15.0938C19.4688 14.184 19.6667 13.2083 19.6667 12.1667H21.3333C21.3333 13.4306 21.0938 14.6181 20.6146 15.7292C20.1354 16.8403 19.4792 17.8125 18.6458 18.6458C17.8125 19.4792 16.8403 20.1354 15.7292 20.6146C14.6181 21.0938 13.4306 21.3333 12.1667 21.3333ZM11.4167 18V16.9167C10.7639 16.7639 10.2326 16.4826 9.82292 16.0729C9.41319 15.6632 9.11111 15.125 8.91667 14.4583L10.2917 13.9167C10.4583 14.4861 10.7188 14.9132 11.0729 15.1979C11.4271 15.4826 11.8333 15.625 12.2917 15.625C12.75 15.625 13.1424 15.5174 13.4688 15.3021C13.7951 15.0868 13.9583 14.75 13.9583 14.2917C13.9583 13.8889 13.7882 13.5625 13.4479 13.3125C13.1076 13.0625 12.5 12.7778 11.625 12.4583C10.8056 12.1667 10.2049 11.8194 9.82292 11.4167C9.44097 11.0139 9.25 10.4861 9.25 9.83333C9.25 9.26389 9.44792 8.74653 9.84375 8.28125C10.2396 7.81597 10.7778 7.51389 11.4583 7.375V6.33333H12.9167V7.375C13.4167 7.41667 13.8715 7.61806 14.2813 7.97917C14.691 8.34028 14.9722 8.76389 15.125 9.25L13.7917 9.79167C13.6806 9.47222 13.5 9.20486 13.25 8.98958C13 8.77431 12.6528 8.66667 12.2083 8.66667C11.7222 8.66667 11.3507 8.77083 11.0938 8.97917C10.8368 9.1875 10.7083 9.47222 10.7083 9.83333C10.7083 10.1944 10.8681 10.4792 11.1875 10.6875C11.5069 10.8958 12.0833 11.1389 12.9167 11.4167C13.9167 11.7778 14.5833 12.2014 14.9167 12.6875C15.25 13.1736 15.4167 13.7083 15.4167 14.2917C15.4167 14.6944 15.3472 15.0486 15.2083 15.3542C15.0694 15.6597 14.8854 15.9201 14.6563 16.1354C14.4271 16.3507 14.1597 16.5243 13.8542 16.6563C13.5486 16.7882 13.2222 16.8889 12.875 16.9583V18H11.4167ZM3 12.1667C3 10.9028 3.23958 9.71528 3.71875 8.60417C4.19792 7.49306 4.85417 6.52083 5.6875 5.6875C6.52083 4.85417 7.49306 4.19792 8.60417 3.71875C9.71528 3.23958 10.9028 3 12.1667 3C13.7222 3 15.1528 3.35417 16.4583 4.0625C17.7639 4.77083 18.8333 5.71528 19.6667 6.89583V4.66667H21.3333V9.66667H16.3333V8H18.3958C17.7292 7 16.8507 6.19444 15.7604 5.58333C14.6701 4.97222 13.4722 4.66667 12.1667 4.66667C11.125 4.66667 10.1493 4.86458 9.23958 5.26042C8.32986 5.65625 7.5382 6.19097 6.86458 6.86458C6.19097 7.5382 5.65625 8.32986 5.26042 9.23958C4.86458 10.1493 4.66667 11.125 4.66667 12.1667H3Z" fill="#757680"/>
</g>
</svg>
