<svg width="20" height="20" viewBox="0 0 20 20" fill="none" xmlns="http://www.w3.org/2000/svg">
<g clip-path="url(#clip0_3813_21368)">
<path d="M4.9987 16.6673C4.54036 16.6673 4.148 16.5041 3.82161 16.1777C3.49523 15.8513 3.33203 15.459 3.33203 15.0007V12.5007H4.9987V15.0007H14.9987V12.5007H16.6654V15.0007C16.6654 15.459 16.5022 15.8513 16.1758 16.1777C15.8494 16.5041 15.457 16.6673 14.9987 16.6673H4.9987ZM9.9987 13.334L5.83203 9.16732L6.9987 7.95898L9.16536 10.1257V3.33398H10.832V10.1257L12.9987 7.95898L14.1654 9.16732L9.9987 13.334Z" fill="#00174B"/>
</g>
<defs>
<clipPath id="clip0_3813_21368">
<path d="M0 4C0 1.79086 1.79086 0 4 0H16C18.2091 0 20 1.79086 20 4V16C20 18.2091 18.2091 20 16 20H4C1.79086 20 0 18.2091 0 16V4Z" fill="white"/>
</clipPath>
</defs>
</svg>
