<svg width="15" height="15" viewBox="0 0 15 15" fill="none" xmlns="http://www.w3.org/2000/svg">
<g id="pix">
<path id="path2376" d="M11.0649 10.9429C10.5208 10.9429 10.009 10.7294 9.62418 10.3418L7.54387 8.24528C7.3978 8.09771 7.14324 8.09815 6.99723 8.24528L4.90932 10.3494C4.52452 10.737 4.01271 10.9505 3.46856 10.9505H3.05859L5.69339 13.6057C6.51621 14.4349 7.85035 14.4349 8.67324 13.6057L11.3155 10.9429H11.0649Z" fill="#757680"/>
<path id="path2380" d="M3.46844 3.52702C4.01259 3.52702 4.5244 3.74054 4.9092 4.12813L6.99711 6.23259C7.14748 6.38419 7.39301 6.38476 7.54375 6.23241L9.62406 4.1358C10.0089 3.74821 10.5207 3.53469 11.0648 3.53469H11.3154L8.67317 0.871947C7.85022 0.0426845 6.5161 0.0426845 5.69327 0.871947L3.05859 3.52703L3.46844 3.52702Z" fill="#757680"/>
<path id="path2384" d="M13.5027 5.7366L11.906 4.1275C11.8708 4.14169 11.8327 4.15055 11.7925 4.15055H11.0665C10.6912 4.15055 10.3238 4.30396 10.0586 4.57143L7.97833 6.66785C7.78366 6.86403 7.52785 6.96219 7.27229 6.96219C7.01648 6.96219 6.76087 6.86403 6.56625 6.66804L4.47814 4.56376C4.21293 4.29624 3.84551 4.14289 3.47018 4.14289H2.5775C2.53942 4.14289 2.50384 4.13384 2.47025 4.12109L0.867166 5.7366C0.044278 6.56586 0.044278 7.91027 0.867166 8.73953L2.47019 10.355C2.50384 10.3422 2.53942 10.3332 2.5775 10.3332H3.47018C3.84551 10.3332 4.21293 10.1798 4.47814 9.91236L6.56606 7.80828C6.94345 7.42828 7.60132 7.42816 7.97833 7.80846L10.0586 9.90469C10.3238 10.1722 10.6912 10.3256 11.0665 10.3256H11.7925C11.8327 10.3256 11.8708 10.3344 11.906 10.3486L13.5027 8.73952C14.3255 7.91026 14.3255 6.56586 13.5027 5.7366Z" fill="#757680"/>
</g>
</svg>
