<svg width="21" height="20" viewBox="0 0 21 20" fill="none" xmlns="http://www.w3.org/2000/svg">
<path d="M15.017 14.3799C14.4124 14.3799 13.8437 14.1427 13.4162 13.712L11.1047 11.3826C10.9424 11.2186 10.6596 11.2191 10.4974 11.3826L8.17746 13.7205C7.7499 14.1512 7.18122 14.3884 6.57661 14.3884H6.12109L9.04864 17.3386C9.96289 18.2599 11.4453 18.2599 12.3596 17.3386L15.2954 14.3799H15.017Z" fill="#0053DB"/>
<path d="M6.57648 6.14113C7.18109 6.14113 7.74977 6.37837 8.17733 6.80904L10.4972 9.14732C10.6643 9.31577 10.9371 9.3164 11.1046 9.14713L13.4161 6.81756C13.8436 6.3869 14.4123 6.14966 15.0169 6.14966H15.2953L12.3595 3.19105C11.4451 2.26965 9.96276 2.26965 9.04851 3.19105L6.12109 6.14114L6.57648 6.14113Z" fill="#0053DB"/>
<path d="M17.7252 8.59579L15.9511 6.8079C15.912 6.82366 15.8697 6.83351 15.825 6.83351H15.0184C14.6013 6.83351 14.1931 7.00397 13.8984 7.30115L11.587 9.63051C11.3707 9.84849 11.0865 9.95755 10.8025 9.95755C10.5183 9.95755 10.2343 9.84849 10.0181 9.63072L7.69794 7.29264C7.40325 6.99539 6.99501 6.825 6.57797 6.825H5.58611C5.5438 6.825 5.50427 6.81495 5.46695 6.80078L3.68574 8.59579C2.77142 9.51719 2.77142 11.011 3.68574 11.9324L5.46688 13.7273C5.50427 13.7131 5.5438 13.7031 5.58611 13.7031H6.57797C6.99501 13.7031 7.40325 13.5327 7.69794 13.2355L10.0178 10.8977C10.4372 10.4754 11.1681 10.4753 11.587 10.8979L13.8984 13.227C14.1931 13.5242 14.6013 13.6946 15.0184 13.6946H15.825C15.8697 13.6946 15.912 13.7045 15.9511 13.7203L17.7252 11.9324C18.6395 11.011 18.6395 9.51719 17.7252 8.59579Z" fill="#0053DB"/>
</svg>
